<?xml version="1.0" standalone="no"?>
<!DOCTYPE svg PUBLIC "-//W3C//DTD SVG 20010904//EN"
 "http://www.w3.org/TR/2001/REC-SVG-20010904/DTD/svg10.dtd">
<svg version="1.0" xmlns="http://www.w3.org/2000/svg"
 width="829.000000pt" height="143.000000pt" viewBox="0 0 829.000000 143.000000"
 preserveAspectRatio="xMidYMid meet">
<metadata>
Created by potrace 1.16, written by Peter Selinger 2001-2019
</metadata>
<g transform="translate(0.000000,143.000000) scale(0.100000,-0.100000)"
fill="#000000" stroke="none">
<path d="M2530 710 l0 -630 95 0 95 0 0 78 1 77 27 -31 c70 -79 175 -124 288
-124 63 0 160 21 194 41 8 5 25 13 37 19 41 17 118 107 153 176 34 69 34 69
35 214 l0 145 -39 77 c-62 125 -146 191 -280 222 -85 20 -133 20 -204 1 -74
-21 -107 -39 -162 -91 l-45 -43 -3 249 -2 250 -95 0 -95 0 0 -630z m597 82
c54 -28 107 -94 128 -160 19 -58 17 -184 -4 -205 -6 -6 -11 -18 -11 -25 0 -25
-67 -99 -112 -123 -36 -19 -58 -23 -133 -23 -75 0 -97 4 -133 23 -182 99 -189
394 -12 506 47 30 69 34 160 31 53 -2 87 -9 117 -24z"/>
<path d="M535 1310 c-85 -21 -133 -42 -199 -84 -127 -82 -230 -222 -270 -368
-32 -114 -17 -319 30 -410 8 -14 14 -33 14 -42 0 -9 4 -16 9 -16 5 0 13 -10
17 -22 9 -29 57 -92 109 -142 183 -177 490 -227 735 -119 46 21 141 91 173
128 37 44 104 152 120 195 22 61 47 182 47 231 l0 39 -310 0 -310 0 0 -110 0
-110 176 0 175 0 -18 -32 c-52 -92 -129 -146 -245 -168 -129 -26 -289 24 -382
118 -50 51 -59 66 -96 142 -30 61 -33 232 -5 300 21 51 92 148 125 170 12 8
32 22 44 30 135 99 403 73 538 -50 24 -22 48 -40 53 -40 6 0 45 34 87 75 l77
74 -32 34 c-18 18 -50 46 -72 63 -22 16 -42 31 -45 34 -3 3 -21 13 -40 22
-147 73 -353 97 -505 58z"/>
<path d="M3711 1263 c-62 -31 -62 -27 -61 -615 0 -590 -1 -580 66 -611 51 -25
486 -25 538 -1 36 18 73 81 63 107 -11 29 16 37 119 37 89 0 105 3 135 23 30
20 34 28 37 74 3 45 0 54 -25 77 -15 15 -44 29 -64 32 -74 12 -71 84 4 84 29
0 46 -7 69 -30 27 -28 35 -30 99 -30 62 0 69 2 69 20 0 14 -7 20 -22 20 -13 0
-18 4 -13 8 6 4 10 16 10 27 0 11 6 32 13 48 25 50 14 62 -61 65 -39 2 -67 -1
-67 -7 0 -5 -9 -12 -19 -16 -11 -3 -21 -13 -23 -22 -2 -11 -17 -17 -51 -19
-58 -3 -92 -24 -114 -69 -15 -32 -15 -37 1 -73 19 -42 38 -56 96 -70 27 -6 36
-14 38 -33 5 -41 -17 -50 -125 -51 l-98 0 -1 468 c-2 496 -2 502 -49 549 -19
19 -35 20 -275 23 -223 2 -259 0 -289 -15z m255 -152 c-6 -9 -43 -28 -138 -70
l-48 -21 0 -375 0 -375 48 -20 c86 -39 152 -73 148 -78 -3 -2 -33 9 -68 26
-35 16 -82 38 -105 48 l-43 19 3 378 2 378 35 18 c157 81 176 89 166 72z"/>
<path d="M4990 675 l0 -595 95 0 95 0 2 437 3 438 93 -190 c51 -105 135 -274
185 -377 l92 -187 57 0 c62 -1 88 6 88 22 0 6 77 164 170 353 94 188 170 347
170 353 0 6 4 11 8 11 10 0 22 -368 22 -662 l0 -198 90 0 90 0 0 595 0 595
-118 0 -118 0 -132 -267 c-73 -148 -143 -288 -156 -313 -13 -25 -39 -76 -57
-115 -19 -38 -38 -73 -43 -76 -5 -4 -96 168 -203 382 l-195 389 -119 0 -119 0
0 -595z"/>
<path d="M1765 974 c-66 -13 -154 -42 -165 -53 -3 -4 -22 -14 -42 -25 -41 -21
-41 -23 5 -102 l30 -52 67 33 c86 44 180 61 260 46 73 -12 114 -39 140 -91 20
-39 27 -100 13 -100 -5 -1 -82 -2 -173 -4 -231 -6 -304 -27 -380 -113 -45 -51
-55 -96 -48 -202 7 -98 51 -160 150 -213 38 -20 57 -23 168 -23 121 0 127 1
192 33 36 18 69 39 72 47 11 30 26 13 26 -30 l0 -45 96 0 95 0 -3 347 c-4 392
-3 388 -85 464 -52 48 -85 64 -167 83 -80 19 -155 19 -251 0z m315 -546 c0
-67 -31 -123 -87 -160 -74 -50 -217 -60 -285 -20 -65 38 -78 154 -22 199 37
29 43 30 232 32 l162 1 0 -52z"/>
<path d="M6803 974 c-117 -26 -241 -115 -288 -205 -74 -146 -75 -329 -3 -464
12 -22 28 -46 35 -53 7 -7 18 -21 25 -30 14 -19 79 -69 117 -91 47 -26 161
-51 233 -50 103 0 215 33 293 84 28 18 75 62 75 70 0 8 -92 95 -100 95 -5 0
-29 -13 -53 -29 -112 -76 -261 -83 -362 -16 -55 37 -100 98 -107 145 l-3 25
338 3 337 2 0 86 c0 226 -107 384 -290 425 -73 17 -181 18 -247 3z m229 -167
c70 -29 128 -107 128 -172 l0 -35 -255 0 c-197 0 -255 3 -255 13 0 19 55 123
76 144 29 29 70 52 111 63 49 12 152 5 195 -13z"/>
<path d="M7390 983 c0 -8 229 -352 248 -371 6 -7 12 -20 12 -28 0 -8 4 -14 9
-14 30 0 9 -51 -56 -135 -4 -6 -39 -57 -78 -115 -38 -58 -72 -107 -75 -110
-12 -12 -80 -116 -80 -123 0 -4 46 -7 103 -7 111 0 104 -3 155 68 12 17 22 34
22 37 0 4 6 13 13 20 22 26 32 39 87 123 l55 82 17 -22 c10 -13 22 -27 26 -33
4 -5 11 -17 15 -25 10 -20 22 -38 96 -153 l64 -97 108 0 c60 0 109 2 109 5 0
6 -23 48 -30 55 -14 14 -50 70 -50 79 0 5 -3 11 -8 13 -10 4 -112 157 -112
168 0 6 -4 10 -8 10 -5 0 -14 10 -21 23 -6 12 -20 36 -31 52 -11 17 -24 38
-30 47 -8 13 4 36 55 113 36 54 65 99 65 102 0 7 45 68 53 71 4 2 7 8 7 13 0
5 20 38 45 75 25 36 45 69 45 75 0 15 -207 12 -214 -3 -7 -15 -18 -31 -115
-177 -41 -61 -78 -111 -82 -111 -6 0 -123 172 -178 263 l-23 37 -109 0 c-60 0
-109 -3 -109 -7z"/>
</g>
</svg>
